<svg data-v-29081953="" xmlns="http://www.w3.org/2000/svg" viewBox="0 0 300 300"><!----><defs data-v-29081953=""><!----></defs><rect data-v-29081953="" fill="#00242B" x="0" y="0" width="300px" height="300px" class="logo-background-square"></rect><!----><defs data-v-29081953=""><!----></defs><g data-v-29081953="" id="c3659572-de44-46cc-9b79-0743cdd4c025" fill="#7DE38D" stroke="none" transform="matrix(2.246330392973674,0,0,2.246330392973674,39.14359157200765,38.062545766626044)"><path d="M93.9 50c-1.1 0-2.1.9-2.1 2.1 0 23.5-19.1 42.5-42.5 42.5S6.8 75.5 6.8 52.1c0-22.5 17.5-40.9 39.6-42.4l-1.9 1.4c-.9.7-1.1 2-.4 2.9.4.5 1 .8 1.6.8.4 0 .9-.1 1.3-.4l6.9-5.2c.5-.4.8-1 .8-1.7s-.4-1.3-.9-1.7l-6.9-4.6c-.9-.6-2.2-.4-2.9.6-.6.9-.4 2.2.6 2.9l1.4.9C21.8 7.3 2.7 27.5 2.7 52.1c0 25.7 20.9 46.7 46.7 46.7S96 77.8 96 52.1c0-1.1-.9-2.1-2.1-2.1z"></path><circle cx="92.4" cy="41.3" r="2.5"></circle><circle cx="89.1" cy="31.9" r="2.5"></circle><circle cx="83" cy="23.1" r="2.5"></circle><circle cx="74.7" cy="15.6" r="2.5"></circle><circle cx="64.7" cy="10.3" r="2.5"></circle><path d="M66.8 46.6c-1.1.5-2.2.9-3.2 1.1V32.3h-9.7c.2.6.4 1.2.7 1.8 1.7 3.6 3.1 9.3-3.8 9.3s-5.5-5.7-3.8-9.3c.3-.6.5-1.2.7-1.8h-16v15.1c.6-.2 1.3-.4 2-.8 3.6-1.7 9.3-3.1 9.3 3.8s-5.7 5.5-9.3 3.8c-.7-.3-1.4-.6-2-.8v10.9h16.2c-.2.7-.5 1.5-.9 2.3-1.7 3.6-3.1 9.3 3.8 9.3s5.5-5.7 3.8-9.3c-.4-.8-.7-1.6-.9-2.3h9.9V53.1c.9.2 2 .5 3.2 1.1 3.6 1.7 9.3 3.1 9.3-3.8s-5.6-5.5-9.3-3.8z"></path></g><!----></svg>