<svg data-v-d3f97b9e="" xmlns="http://www.w3.org/2000/svg" viewBox="0 0 571 107"><!----><!----><!----><g data-v-d3f97b9e="" id="84597666-23c7-448a-a006-9df57504114a" fill="#7DE38D" transform="matrix(3.8961039926133587,0,0,3.8961039926133587,118.25581701882737,20.01480424967116)"><path d="M3.47 1.05L0.84 1.05L0.84 12.60L3.47 12.60ZM5.15 12.60L7.63 12.60L7.63 8.54C7.63 7.83 8.36 7.14 9.10 7.14C9.90 7.14 10.39 7.83 10.39 8.54L10.39 12.60L12.87 12.60L12.87 7.87C12.87 5.87 11.03 5.21 9.72 5.21C8.93 5.21 8.22 5.61 7.66 6.17L7.63 6.17L7.63 5.42L5.15 5.42ZM14.74 5.42L13.71 5.42L13.71 7.31L14.74 7.31L14.74 10.07C14.74 11.34 15.22 12.81 17.19 12.81C18.21 12.81 19.01 12.36 19.01 12.36L18.40 10.36C18.40 10.36 18.10 10.58 17.78 10.58C17.39 10.58 17.22 10.26 17.22 9.59L17.22 7.31L18.73 7.31L18.73 5.42L17.22 5.42L17.22 2.74L14.74 2.74ZM27.12 9.35C27.13 9.27 27.13 9.11 27.13 9.02C27.13 6.50 25.47 5.21 23.28 5.21C21.11 5.21 19.33 6.92 19.33 9.02C19.33 11.10 21.11 12.81 23.28 12.81C24.88 12.81 26.19 12.29 27.01 10.93L25.21 10.04C24.61 10.68 24.26 10.84 23.46 10.84C22.83 10.84 21.91 10.46 21.91 9.35ZM21.98 7.98C22.02 7.32 22.50 6.82 23.35 6.82C24.08 6.82 24.60 7.22 24.71 7.98ZM28.27 12.60L30.74 12.60L30.74 8.82C30.74 8.64 30.93 7.36 32.21 7.36C33.04 7.36 33.50 7.76 33.50 7.76L34.54 5.66C34.54 5.66 33.89 5.21 32.97 5.21C31.56 5.21 30.77 6.45 30.77 6.45L30.74 6.45L30.74 5.42L28.27 5.42ZM37.06 5.42L34.12 5.42L37.97 12.60L39.65 12.60L43.50 5.42L40.56 5.42L38.81 9.32ZM45.33 0.98C44.52 0.98 43.86 1.64 43.86 2.45C43.86 3.26 44.52 3.92 45.33 3.92C46.14 3.92 46.80 3.26 46.80 2.45C46.80 1.64 46.14 0.98 45.33 0.98ZM44.06 5.42L46.54 5.42L46.54 12.60L44.06 12.60ZM55.55 9.35C55.57 9.27 55.57 9.11 55.57 9.02C55.57 6.50 53.90 5.21 51.72 5.21C49.55 5.21 47.77 6.92 47.77 9.02C47.77 11.10 49.55 12.81 51.72 12.81C53.31 12.81 54.63 12.29 55.44 10.93L53.65 10.04C53.05 10.68 52.70 10.84 51.90 10.84C51.27 10.84 50.34 10.46 50.34 9.35ZM50.41 7.98C50.46 7.32 50.93 6.82 51.79 6.82C52.51 6.82 53.03 7.22 53.14 7.98ZM61.07 12.60L62.72 8.89L64.37 12.60L66.05 12.60L69.90 5.42L67.05 5.42L65.30 9.30L63.57 5.42L61.87 5.42L60.14 9.30L58.39 5.42L55.54 5.42L59.39 12.60ZM79.98 10.22C77.34 10.22 76.17 8.37 76.17 6.82C76.17 5.28 77.34 3.43 79.98 3.43C81.33 3.43 82.25 4.14 82.25 4.14L83.37 1.90C83.37 1.90 82.08 0.84 79.58 0.84C76.30 0.84 73.32 3.53 73.32 6.85C73.32 10.15 76.31 12.81 79.58 12.81C82.08 12.81 83.37 11.75 83.37 11.75L82.25 9.51C82.25 9.51 81.33 10.22 79.98 10.22ZM83.86 9.02C83.86 11.12 85.33 12.81 87.43 12.81C88.41 12.81 89.25 12.38 89.78 11.79L89.81 11.79L89.81 12.60L92.26 12.60L92.26 5.42L89.78 5.42L89.78 6.10C89.19 5.53 88.40 5.21 87.43 5.21C85.33 5.21 83.86 6.92 83.86 9.02ZM86.49 9.02C86.49 8.02 87.23 7.32 88.17 7.32C89.10 7.32 89.84 8.02 89.84 9.02C89.84 10.00 89.14 10.70 88.17 10.70C87.16 10.70 86.49 10.00 86.49 9.02ZM93.94 12.60L96.42 12.60L96.42 8.40C96.42 7.83 96.74 7.20 97.57 7.20C98.45 7.20 98.83 7.83 98.83 8.54L98.83 12.60L101.30 12.60L101.30 8.32C101.33 7.77 101.67 7.20 102.45 7.20C103.33 7.20 103.71 7.83 103.71 8.54L103.71 12.60L106.19 12.60L106.19 7.87C106.19 5.87 104.71 5.21 103.39 5.21C102.61 5.21 101.77 5.61 101.01 6.52C100.51 5.56 99.46 5.21 98.50 5.21C97.72 5.21 97.01 5.61 96.45 6.17L96.42 6.17L96.42 5.42L93.94 5.42ZM116.13 9.00C116.13 6.90 114.66 5.21 112.56 5.21C111.58 5.21 110.74 5.64 110.21 6.23L110.18 6.23L110.18 5.42L107.73 5.42L107.73 16.24L110.21 16.24L110.21 11.91C110.80 12.49 111.59 12.81 112.56 12.81C114.66 12.81 116.13 11.10 116.13 9.00ZM113.50 9.00C113.50 10.00 112.76 10.70 111.82 10.70C110.89 10.70 110.15 10.00 110.15 9.00C110.15 8.02 110.85 7.32 111.82 7.32C112.83 7.32 113.50 8.02 113.50 9.00Z"></path></g><!----><g data-v-d3f97b9e="" id="6867823f-42b5-43a0-b41b-9da88a3d6bec" transform="matrix(1.0881945292154949,0,0,1.0881945292154949,-2.002401681443196,-0.3635975601111312)" stroke="none" fill="#7DE38D"><path d="M93.9 50c-1.1 0-2.1.9-2.1 2.1 0 23.5-19.1 42.5-42.5 42.5S6.8 75.5 6.8 52.1c0-22.5 17.5-40.9 39.6-42.4l-1.9 1.4c-.9.7-1.1 2-.4 2.9.4.5 1 .8 1.6.8.4 0 .9-.1 1.3-.4l6.9-5.2c.5-.4.8-1 .8-1.7s-.4-1.3-.9-1.7l-6.9-4.6c-.9-.6-2.2-.4-2.9.6-.6.9-.4 2.2.6 2.9l1.4.9C21.8 7.3 2.7 27.5 2.7 52.1c0 25.7 20.9 46.7 46.7 46.7S96 77.8 96 52.1c0-1.1-.9-2.1-2.1-2.1z"></path><circle cx="92.4" cy="41.3" r="2.5"></circle><circle cx="89.1" cy="31.9" r="2.5"></circle><circle cx="83" cy="23.1" r="2.5"></circle><circle cx="74.7" cy="15.6" r="2.5"></circle><circle cx="64.7" cy="10.3" r="2.5"></circle><path d="M66.8 46.6c-1.1.5-2.2.9-3.2 1.1V32.3h-9.7c.2.6.4 1.2.7 1.8 1.7 3.6 3.1 9.3-3.8 9.3s-5.5-5.7-3.8-9.3c.3-.6.5-1.2.7-1.8h-16v15.1c.6-.2 1.3-.4 2-.8 3.6-1.7 9.3-3.1 9.3 3.8s-5.7 5.5-9.3 3.8c-.7-.3-1.4-.6-2-.8v10.9h16.2c-.2.7-.5 1.5-.9 2.3-1.7 3.6-3.1 9.3 3.8 9.3s5.5-5.7 3.8-9.3c-.4-.8-.7-1.6-.9-2.3h9.9V53.1c.9.2 2 .5 3.2 1.1 3.6 1.7 9.3 3.1 9.3-3.8s-5.6-5.5-9.3-3.8z"></path></g><!----></svg>